HIERARCHY
ROOT Hips
{
	OFFSET -3.958830 18.904000 13.208200
	CHANNELS 6 Xposition Yposition Zposition Zrotation Yrotation Xrotation 
	JOINT LHipJoint
	{
		OFFSET 0.000000 0.000000 0.000000
		CHANNELS 3 Zrotation Yrotation Xrotation
		JOINT LeftUpLeg
		{
			OFFSET 1.800000 -1.400000 0.085000
			CHANNELS 3 Zrotation Yrotation Xrotation
			JOINT LeftLeg
			{
				OFFSET 2.215000 -6.000000 0.000000
				CHANNELS 3 Zrotation Yrotation Xrotation
				JOINT LeftFoot
				{
					OFFSET 2.500000 -6.900000 0.000000
					CHANNELS 3 Zrotation Yrotation Xrotation
					JOINT LeftToeBase
					{
						OFFSET 0.200000 -0.500000 1.950000
						CHANNELS 3 Zrotation Yrotation Xrotation
						End Site
						{
							OFFSET 0.000000 0.000000 0.000000
						}
					}
				}
			}
		}
	}
	JOINT RHipJoint
	{
		OFFSET 0.000000 0.000000 0.000000
		CHANNELS 3 Zrotation Yrotation Xrotation
		JOINT RightUpLeg
		{
			OFFSET -1.800000 -1.400000 0.085000
			CHANNELS 3 Zrotation Yrotation Xrotation
			JOINT RightLeg
			{
				OFFSET -2.215000 -6.000000 0.000000
				CHANNELS 3 Zrotation Yrotation Xrotation
				JOINT RightFoot
				{
					OFFSET -2.500000 -6.900000 0.000000
					CHANNELS 3 Zrotation Yrotation Xrotation
					JOINT RightToeBase
					{
						OFFSET -0.200000 -0.500000 1.950000
						CHANNELS 3 Zrotation Yrotation Xrotation
						End Site
						{
							OFFSET 0.000000 0.000000 0.000000
						}
					}
				}
			}
		}
	}
	JOINT LowerBack
	{
		OFFSET 0.000000 0.000000 0.000000
		CHANNELS 3 Zrotation Yrotation Xrotation
		JOINT Spine
		{
			OFFSET -0.087000 1.940000 -0.288900
			CHANNELS 3 Zrotation Yrotation Xrotation
			JOINT Spine1
			{
				OFFSET 0.000000 1.950000 0.060000
				CHANNELS 3 Zrotation Yrotation Xrotation
				JOINT Neck
				{
					OFFSET 0.000000 0.000000 0.000000
					CHANNELS 3 Zrotation Yrotation Xrotation
					JOINT Neck1
					{
						OFFSET 0.000000 1.600000 0.340000
						CHANNELS 3 Zrotation Yrotation Xrotation
						JOINT Head
						{
							OFFSET 0.000000 1.667000 -0.240000
							CHANNELS 3 Zrotation Yrotation Xrotation
							End Site
							{
								OFFSET 0.000000 0.000000 0.000000
							}
						}
					}
				}
				JOINT LeftShoulder
				{
					OFFSET 0.000000 0.000000 0.000000
					CHANNELS 3 Zrotation Yrotation Xrotation
					JOINT LeftArm
					{
						OFFSET 2.700000 1.550000 -0.730000
						CHANNELS 3 Zrotation Yrotation Xrotation
						JOINT LeftForeArm
						{
							OFFSET 5.450000 0.000000 0.000000
							CHANNELS 3 Zrotation Yrotation Xrotation
							JOINT LeftHand
							{
								OFFSET 3.450000 0.000000 0.000000
								CHANNELS 3 Zrotation Yrotation Xrotation
								JOINT LeftHandIndex1
								{
									OFFSET 0.750000 0.000000 0.000000
									CHANNELS 3 Zrotation Yrotation Xrotation
									End Site
									{
										OFFSET 0.000000 0.000000 0.000000
									}
								}
							}
						}
					}
				}
				JOINT RightShoulder
				{
					OFFSET 0.000000 0.000000 0.000000
					CHANNELS 3 Zrotation Yrotation Xrotation
					JOINT RightArm
					{
						OFFSET -2.700000 1.550000 -0.730000
						CHANNELS 3 Zrotation Yrotation Xrotation
						JOINT RightForeArm
						{
							OFFSET -5.450000 0.000000 0.000000
							CHANNELS 3 Zrotation Yrotation Xrotation
							JOINT RightHand
							{
								OFFSET -3.450000 0.000000 0.000000
								CHANNELS 3 Zrotation Yrotation Xrotation
								JOINT RightHandIndex1
								{
									OFFSET -0.750000 0.000000 0.000000
									CHANNELS 3 Zrotation Yrotation Xrotation
									End Site
									{
										OFFSET 0.000000 0.000000 0.000000
									}
								}
							}
						}
					}
				}
			}
		}
	}
}
MOTION
Frames: 13
Frame Time: 0.016667
-2.005900 17.316050 -2.809260 -4.743346 -0.934035 -6.690685 -15.067458 12.184653 4.976341 5.932370 -5.647323 -41.698941 1.641808 12.450403 61.147632 0.677679 10.801400 0.610253 0.530480 0.119070 0.569500 18.350254 -11.178907 2.101300 -9.580401 2.675779 -11.942810 3.837132 -5.578258 22.354905 -0.330312 -3.624450 3.098481 -0.012850 -0.106910 0.151870 -3.899481 -0.066783 -8.438245 11.845677 -0.868430 43.577192 -14.347339 7.291482 8.963425 8.016915 -4.919732 -14.142107 -10.328822 3.914465 45.852492 7.685180 -3.143180 -23.364250 -13.843173 -13.960875 7.818280 -50.999976 2.475994 -20.123043 1.277999 -67.630351 -9.207505 -2.955115 3.183619 0.845600 -0.307450 0.226280 0.045070 -2.503989 24.651422 6.563119 10.094937 19.634387 -11.484680 63.007415 79.655869 41.295089 2.177201 -1.636393 -0.128620 0.140710 -0.091350 -0.248560 
-1.989260 17.339590 -2.831970 -5.912452 -8.328467 -6.390966 -15.027036 12.255773 4.763247 7.280406 -3.055044 -41.039534 -1.045447 14.571776 58.766655 0.650765 10.835102 0.597127 0.610190 0.235470 0.604860 18.393672 -11.204882 2.244959 -6.724994 3.831758 -12.833972 2.415180 -5.094700 25.741090 -0.359486 -3.773346 3.059740 0.085350 -0.083630 0.113290 -3.908947 0.170702 -8.317875 12.083816 0.185770 42.961867 -15.197254 8.521481 9.164021 9.102919 -6.657317 -12.759307 -12.454847 6.581578 43.733877 6.069540 -1.778670 -22.942460 -13.638033 -10.522411 6.328456 -52.712505 0.927812 -18.391423 1.829775 -59.917662 -7.635814 -3.003655 3.152784 0.792960 -0.288710 0.205110 0.090320 -5.029134 22.996029 4.331514 7.312269 20.701995 -13.474321 38.549443 80.812948 25.256902 1.876392 -1.983790 -0.136820 0.203450 -0.139540 -0.230840 
-1.940020 17.357970 -2.817490 -8.208903 -15.566599 -5.280584 -14.865068 12.128968 4.538681 5.673255 -2.345273 -40.177548 -2.224655 14.725977 56.170301 0.592613 10.384572 0.770306 0.709930 0.372240 0.657870 18.547952 -11.291156 2.569467 -3.826847 5.740325 -12.640611 3.037294 -5.714176 32.809041 -0.588533 -4.681413 2.763594 0.168170 -0.100110 0.068810 -4.307301 0.791159 -8.235298 15.534811 -1.342130 41.247257 -18.849326 7.854761 8.322629 10.093805 -8.275708 -11.503818 -15.300663 9.382552 43.516177 4.762240 -0.334010 -22.476010 -15.794756 -7.966335 5.143780 -50.549498 2.067507 -15.833041 -1.788430 -46.664633 -3.944195 -3.010305 3.106647 0.774920 -0.305520 0.227010 0.158170 -5.125897 20.458880 2.353641 1.307368 18.677520 -14.998511 -6.654433 76.706986 -6.539587 1.807513 -1.632901 -0.129590 0.252940 -0.227820 -0.213650 
-1.952420 17.392810 -2.822370 -9.787715 -21.414329 -4.863016 -14.766580 12.197973 4.184494 2.925431 -1.994479 -38.284407 -2.522579 13.498649 51.887051 0.339389 9.436579 1.077265 0.784140 0.413920 0.724680 18.625330 -11.318221 2.897417 -1.727158 7.776944 -10.111060 4.151706 -6.643831 39.789357 -0.901013 -5.873721 2.324496 0.231430 -0.110550 0.057020 -4.562418 0.975005 -8.092330 17.236138 -2.372257 40.969677 -20.648684 7.402955 8.111136 10.206435 -10.292753 -11.005587 -19.698589 12.152077 42.636673 5.512710 0.239630 -22.200780 -17.606339 -6.623203 4.426989 -49.256574 3.431933 -14.425405 -5.993639 -37.912935 -2.332619 -3.005792 3.071128 0.828120 -0.342020 0.240990 0.179010 -3.741253 19.697322 1.557553 -9.093795 17.900790 -14.086313 -24.062370 60.288945 -11.070041 1.912388 -1.430769 -0.166510 0.287590 -0.254190 -0.236380 
-2.001160 17.363320 -2.757750 -10.069560 -26.784023 -4.438536 -14.713973 12.205747 3.990223 -1.235447 -2.560195 -36.448526 -1.897421 11.779082 48.276051 0.167124 8.356615 1.421232 0.850300 0.528360 0.763040 18.648148 -11.463346 3.045763 -1.681266 8.836962 -7.045249 5.309492 -7.747889 44.180306 -1.159697 -6.853364 2.006607 0.287000 -0.144020 0.100970 -4.714897 1.239177 -7.969494 16.705843 -1.879642 38.372887 -21.565594 7.510124 9.399344 10.409221 -10.260435 -10.637843 -19.320145 13.475294 42.852460 2.835150 2.844980 -21.314390 -18.031909 -4.690641 3.499565 -47.885572 5.279617 -14.560098 -10.444933 -34.496682 -1.353172 -3.032546 3.111760 0.797380 -0.307990 0.285570 0.194500 -3.729487 16.926532 2.027202 -17.022268 20.128408 -10.224209 -22.568641 33.936531 -5.185153 2.192567 -1.489702 -0.114660 0.251820 -0.289480 -0.235970 
-2.035290 17.291430 -2.707030 -11.691550 -31.493282 -5.317455 -14.708060 12.413582 3.699758 -3.561245 -2.164845 -33.048904 -1.404530 10.347762 44.436436 0.058244 7.346860 1.766032 0.839780 0.522190 0.771910 18.602468 -11.558383 3.187033 -2.142119 9.249560 -1.107529 8.555831 -9.750160 45.367972 -1.355561 -7.695963 1.762575 0.267900 -0.171520 0.107200 -4.706112 1.131490 -7.820614 17.184820 -2.481518 39.616413 -22.612903 7.310055 9.480457 11.631163 -11.287732 -11.084581 -20.662408 14.666219 39.924065 1.059710 4.407490 -19.504190 -17.793020 -1.986245 2.333650 -49.139675 8.919161 -16.900164 -16.248199 -33.330984 -0.504832 -3.002892 3.192982 0.745930 -0.292360 0.271860 0.173110 -6.215834 15.342848 3.474859 -24.086725 16.589642 -7.672446 -15.747437 20.849593 -1.858343 2.353736 -1.524577 -0.081180 0.188710 -0.296570 -0.239620 
-2.084100 17.195020 -2.681040 -13.613136 -37.937951 -4.787748 -14.670928 12.543485 3.484628 -4.038815 -1.212787 -30.686599 -2.743802 9.740983 39.285380 -0.056021 6.329938 2.131772 0.808620 0.472690 0.824500 18.568216 -11.873338 3.286945 -1.627768 8.433974 4.265892 7.668281 -9.419956 43.973135 -1.429075 -7.680671 1.809786 0.193080 -0.224670 0.105540 -4.812749 1.463136 -7.691581 17.646114 -1.701362 39.867660 -24.204764 8.762173 9.439326 12.404794 -10.060594 -12.102975 -18.073825 13.614013 41.058962 0.997790 5.997440 -20.609950 -17.094210 -0.359197 0.976132 -49.626911 11.615797 -18.499839 -20.581261 -28.890768 -0.424513 -2.959616 3.095637 0.802600 -0.329750 0.331830 0.144250 -8.429251 13.688955 6.384923 -23.919443 8.858976 -5.115786 -15.231417 13.529308 -1.146606 2.496890 -1.453638 -0.074090 0.167790 -0.318530 -0.268390 
-2.104920 17.126860 -2.655040 -17.595868 -45.220366 -2.318803 -14.555493 12.564217 3.243678 -2.850238 -0.275791 -28.958309 -2.791937 8.730158 35.170982 -0.238325 5.479626 2.416067 0.758830 0.368580 0.813090 18.599299 -12.374498 3.408177 -1.578352 6.975871 8.520358 5.667368 -8.495989 40.583182 -1.379938 -7.405319 1.898693 0.136790 -0.269070 0.088970 -5.297458 2.342085 -7.508990 21.842600 -2.032960 39.695340 -27.957231 9.722152 7.890451 13.175375 -10.034495 -12.969399 -18.492968 14.188479 42.840931 1.570570 6.589250 -18.368910 -18.553032 1.049551 -0.188379 -48.642693 14.969558 -19.966658 -21.544912 -28.910007 -0.381205 -2.836793 3.157093 0.857320 -0.362150 0.315070 0.105740 -8.802778 12.759320 8.607258 -23.126771 0.276893 -3.080459 -14.051620 14.848298 -0.672254 2.519464 -1.597252 -0.107050 0.104080 -0.291970 -0.317260 
-2.137270 17.029950 -2.638040 -19.937284 -57.269911 -2.971061 -14.652053 13.108047 2.937099 -0.971698 1.788133 -23.224405 -4.911671 9.139314 30.553090 -0.123816 4.835664 2.727963 0.812790 0.473290 0.810730 18.317813 -12.837031 3.347535 -5.287416 6.586300 13.170743 1.933576 -6.831583 37.939640 -1.347172 -7.110888 2.075070 0.150880 -0.296710 -0.030900 -5.343877 2.360898 -7.193582 19.339785 -0.351993 45.455583 -29.727752 11.021687 2.990188 13.872177 -11.791390 -14.311675 -22.998005 17.105454 40.577988 5.068070 7.092090 -16.817770 -18.160096 6.747428 -3.450126 -50.560130 17.966914 -22.299448 -22.766053 -30.494273 0.201559 -2.589655 3.171928 0.846530 -0.448950 0.345270 0.205950 -10.942973 12.113897 11.722334 -18.798694 -6.730674 -3.258048 -17.228529 19.171818 -1.384825 2.737047 -1.929348 -0.097140 0.137140 -0.436590 -0.256680 
-2.118770 16.939660 -2.621670 -23.594501 -63.315236 -2.622305 -14.773709 13.800664 2.938389 -0.972215 2.298868 -20.990087 -2.263300 8.646375 31.866079 0.144802 4.775681 2.718922 0.855210 0.566770 0.751390 18.110634 -12.504651 3.302252 -8.279480 5.573336 17.388771 1.771080 -7.001919 34.366685 -1.364633 -7.011588 2.088112 0.099490 -0.364730 0.021830 -4.587742 0.533741 -7.122118 16.379569 1.807265 54.397730 -27.924303 11.050622 -9.002832 13.768871 -12.956342 -12.454209 -25.903684 19.001711 39.474524 8.966380 6.328510 -16.594080 -18.291236 14.177635 -6.191389 -49.459010 21.918288 -20.547704 -24.829060 -28.577353 1.212783 -2.505548 3.311505 0.770280 -0.532290 0.414330 0.258670 -11.173271 8.571100 11.157989 -15.866910 -9.088212 -2.670000 -20.624046 27.523842 -2.585946 2.835211 -2.115246 0.074450 -0.007500 -0.512480 -0.142650 
-2.132720 16.874680 -2.597770 -25.273751 -66.526838 0.672353 -14.954307 14.341842 3.254920 -2.499267 0.784634 -23.137805 -0.252005 7.780160 32.311855 -0.058639 4.986804 2.633409 0.572280 0.063940 0.660610 17.981501 -11.688403 3.013209 -10.181156 5.352333 16.677141 2.988911 -7.517445 32.285189 -1.144471 -6.788667 2.083155 -0.115430 -0.242470 0.066020 -3.441907 -1.990913 -7.383125 10.753669 5.538323 56.512928 -23.889026 11.120927 -20.271557 14.257453 -12.183497 -12.103544 -25.223874 20.207965 41.472530 8.803620 7.196660 -9.901880 -18.627153 17.277145 -6.010168 -45.125213 29.217512 -18.413341 -29.515098 -28.412012 2.281827 -2.662810 3.295605 0.879780 -0.461190 0.257580 0.099640 -10.226197 6.452745 10.016058 -13.702213 -10.365912 -1.523838 -21.555139 35.945341 -3.021264 2.666550 -1.914727 -0.102080 -0.042450 -0.244200 -0.271070 
-2.124460 16.865960 -2.550480 -27.975139 -67.223176 5.975880 -15.088546 14.420782 3.577310 -3.902676 -1.412076 -25.528835 2.334770 6.076442 31.517983 -0.091095 4.461843 2.810368 0.590590 0.097670 0.681360 17.909018 -11.278755 2.830514 -10.652189 4.943194 13.575746 4.994691 -8.184384 31.950712 -1.083921 -6.568808 2.161569 -0.128350 -0.290830 0.046790 -3.027194 -3.060054 -7.573622 9.745964 5.487783 53.735011 -21.342980 10.044606 -23.515380 14.394553 -11.743979 -12.167056 -26.222051 21.361019 44.339187 7.972820 8.084850 -7.221690 -19.381847 17.453913 -5.063170 -44.592718 30.330779 -17.467039 -28.181807 -28.602251 2.460837 -2.667086 3.300288 0.861460 -0.480280 0.282180 0.105570 -8.659115 4.754063 9.140712 -10.144135 -12.641499 -1.418141 -24.070241 45.140054 -4.748557 2.628729 -1.873510 -0.063210 -0.077450 -0.289310 -0.263730 
-2.094430 16.935540 -2.577400 -31.336596 -68.420710 11.206719 -15.241742 14.703646 3.651289 -2.904417 -1.910376 -25.644019 2.063598 5.193663 26.914962 0.030099 3.461820 3.155380 0.754860 0.422330 0.729690 17.786281 -11.034518 2.716868 -8.478291 3.696016 10.199647 3.165648 -7.321960 32.819018 -1.116934 -6.116547 2.367615 -0.069290 -0.404750 0.077140 -2.651261 -4.046073 -7.600555 7.135083 5.767963 51.756240 -18.011692 10.107580 -24.979688 14.416341 -10.930345 -11.644237 -25.952895 23.051398 46.339721 6.605240 11.106860 -8.304200 -19.778440 18.211480 -5.186333 -43.108796 26.373018 -14.894988 -28.953472 -27.561483 3.244455 -2.633848 3.366654 0.756950 -0.521530 0.447260 0.223080 -7.523564 2.132921 8.421054 -0.978542 -14.304922 -3.522648 -23.431274 56.669572 -6.771507 2.554528 -1.915188 0.144900 -0.146200 -0.496260 -0.144120 
